<?xml version="1.0" encoding="utf-8"?>
<!-- Svg Vector Icons : http://www.onlinewebfonts.com/icon -->
<!DOCTYPE svg PUBLIC "-//W3C//DTD SVG 1.1//EN" "http://www.w3.org/Graphics/SVG/1.1/DTD/svg11.dtd">
<svg version="1.1" xmlns="http://www.w3.org/2000/svg" xmlns:xlink="http://www.w3.org/1999/xlink" x="0px" y="0px" viewBox="0 0 1000 1000" enable-background="new 0 0 1000 1000" xml:space="preserve">
<metadata> Svg Vector Icons : http://www.onlinewebfonts.com/icon </metadata>
<g><path d="M970,516.7c-12.8-30.9-31.2-58.8-54.5-82.9c-43.8-45.2-100.3-72.1-160.8-76.9C746.6,223.1,635.5,116.7,500,116.7c-12.1,0-21.9,9.8-21.9,21.9c0,12.1,9.8,21.9,21.9,21.9c116.6,0,211.5,95.2,211.5,212.1c0,0.3,0,0.8,0,1.3c0,0.6,0,1.1,0,1.4l-0.1,24.4c0,0,21.6,0.2,23.5,0.2c56,0,109.1,22.9,149.3,64.5c40.1,41.4,62.2,95.6,62.2,152.6c0,56.6-22.8,113.3-62.4,155.5c-40.5,43.1-93.5,67.1-149.1,67.1H265.2c-55.6,0-108.6-24-149.1-67.1c-39.7-42.2-62.4-99.1-62.4-155.6s22.7-113.2,62.4-155.4c40-42.5,92-66.1,146.8-66.8c0.8,0.1,1.5,0.1,2.3,0.1c12.7,0,23.4-10.7,23.4-23.4c0-42,12.3-82.5,35.5-117.3c6.8-10.1,4-23.8-6.1-30.5c-10.1-6.8-23.8-4-30.5,6.1c-24.4,36.6-38.8,78.5-42.2,122.2c-60.4,5-117,32.9-161.1,79.8C37.1,481.7,10,549.4,10,616.9c0,67.6,27.1,135.3,74.3,185.5c48.9,52,113.1,80.9,180.9,80.9h469.6c67.8,0,132.1-28.9,180.9-80.9c47.2-50.2,74.3-118,74.3-185.6C990,582.4,983.3,548.7,970,516.7z"/><path d="M389.8,187.6c3.5,0,7.1-0.8,10.4-2.6c16-8.6,33.1-15.1,50.8-19.3c11.8-2.8,19.1-14.7,16.3-26.5c-2.8-11.8-14.7-19.1-26.5-16.3c-21.4,5.1-42.1,12.9-61.5,23.3c-10.7,5.8-14.7,19.1-9,29.8C374.4,183.4,382,187.6,389.8,187.6z"/><path d="M479.8,580.3c0,6.2-5,11.2-11.2,11.2H322.7c-6.2,0-11.2-5-11.2-11.2V434.4c0-6.2,5-11.2,11.2-11.2h145.9c6.2,0,11.2,5,11.2,11.2V580.3z"/><path d="M612.3,618.5c-4.4,4.4-11.5,4.4-15.9,0L493.3,515.3c-4.4-4.4-4.4-11.5,0-15.9l103.2-103.2c4.4-4.4,11.5-4.4,15.9,0l103.2,103.2c4.4,4.4,4.4,11.5,0,15.9L612.3,618.5z"/><path d="M479.8,794.1c0,6.2-5,11.2-11.2,11.2H322.7c-6.2,0-11.2-5-11.2-11.2V648.2c0-6.2,5-11.2,11.2-11.2h145.9c6.2,0,11.2,5,11.2,11.2V794.1z"/><path d="M688.5,794.1c0,6.2-5,11.2-11.2,11.2H531.4c-6.2,0-11.2-5-11.2-11.2V648.2c0-6.2,5-11.2,11.2-11.2h145.9c6.2,0,11.2,5,11.2,11.2V794.1z"/></g>
</svg>